# xmcd
#
# Track frame offsets:
#	182
#	13457
#	24355
#	35342
#	47977
#	61350
#	73392
#	84932
#	96902
#	109542
#
# Disc length: 1609 seconds
#
# Revision: 3
# Processed by: cddbd v1.5.1PL0 Copyright (c) Steve Scherf et al.
# Submitted via: audiograbber 1.83.01
#
DISCID=8306470a
DTITLE=Country Greats - All Time Country Greats
DYEAR=1900
DGENRE=
TTITLE0=David Houston - Almost Persuaded
TTITLE1=Waylon Jennings - Sally Was A Good Old Girl
TTITLE2=Dolly Parton - It Wasn't God Who Made Honky Tonk Angels
TTITLE3=Freddy Fender - Since I Met You, Baby
TTITLE4=Lynn Anderson - Rose Garden
TTITLE5=Patsy Cline - Walkin' After Midnight
TTITLE6=Willie Nelson - Night Life
TTITLE7=Kenny Rogers - Me And Bobby McGee
TTITLE8=Mickey Gilley - Wild Side Of Life
TTITLE9=George Jones - White Lightning
EXTD=
EXTT0=
EXTT1=
EXTT2=
EXTT3=
EXTT4=
EXTT5=
EXTT6=
EXTT7=
EXTT8=
EXTT9=
PLAYORDER=
